<?xml version='1.0' encoding='ASCII' standalone='yes'?>
<svg xmlns:xlink="http://www.w3.org/1999/xlink" xmlns="http://www.w3.org/2000/svg" version="1.1">
  <g>
    <g><defs id="defs4"/>
  <sodipodi:namedview xmlns:sodipodi="http://sodipodi.sourceforge.net/DTD/sodipodi-0.dtd" xmlns:inkscape="http://www.inkscape.org/namespaces/inkscape" id="base" pagecolor="#ffffff" bordercolor="#666666" borderopacity="1.0" inkscape:pageopacity="0.0" inkscape:pageshadow="2" inkscape:zoom="0.7" inkscape:cx="59.747372" inkscape:cy="282.76458" inkscape:document-units="px" inkscape:current-layer="layer1" showgrid="false" fit-margin-top="0" fit-margin-left="0" fit-margin-right="0" fit-margin-bottom="0" inkscape:window-width="1920" inkscape:window-height="1003" inkscape:window-x="1440" inkscape:window-y="50" inkscape:window-maximized="1"/>
  <metadata xmlns:rdf="http://www.w3.org/1999/02/22-rdf-syntax-ns#" xmlns:cc="http://creativecommons.org/ns#" xmlns:dc="http://purl.org/dc/elements/1.1/" id="metadata7">
    <rdf:RDF>
      <cc:Work rdf:about="">
        <dc:format>image/svg+xml</dc:format>
        <dc:type rdf:resource="http://purl.org/dc/dcmitype/StillImage"/>
        <dc:title/>
      </cc:Work>
    </rdf:RDF>
  </metadata>
  <g xmlns:inkscape="http://www.inkscape.org/namespaces/inkscape" inkscape:label="Layer 1" inkscape:groupmode="layer" id="layer1" transform="translate(-72.85714,-415.21935)">
    <rect style="opacity:1;fill:#999999;fill-opacity:1;stroke:none;stroke-width:5;stroke-miterlimit:4;stroke-dasharray:none;stroke-opacity:1" id="rect4136" width="1000.0001" height="350.00003" x="72.85714" y="415.21933" ry="84.259262"/>
  </g>
</g>
    <g transform="translate(566.9291338582677, 192.0) scale(1) "><defs xmlns:inkscape="http://www.inkscape.org/namespaces/inkscape" id="defs67">
    <defs id="defs42">
      <g style="fill:#ffffff" transform="matrix(2,0,0,2,40,158)" id="SVG">
        <path inkscape:connector-curvature="0" d="M 5.482,31.319 C 2.163,28.001 0.109,23.419 0.109,18.358 0.109,8.232 8.322,0.024 18.443,0.024 c 10.126,0 18.339,8.208 18.339,18.334 l -10.74,0 c 0,-4.194 -3.404,-7.593 -7.599,-7.593 -4.194,0 -7.593,3.399 -7.593,7.593 0,2.095 0.851,3.993 2.22,5.363 l 0.005,0 c 1.375,1.38 2.52,1.779 5.368,2.231 l 0,0 c 5.066,0.527 9.648,2.054 12.966,5.372 l 0,0 c 3.319,3.319 5.373,7.901 5.373,12.962 0,10.126 -8.213,18.339 -18.339,18.339 -10.121,0 -18.334,-8.213 -18.334,-18.339 l 10.741,0 c 0,4.194 3.399,7.598 7.593,7.598 4.195,0 7.599,-3.404 7.599,-7.598 0,-2.095 -0.851,-3.988 -2.221,-5.363 l -0.005,0 c -1.375,-1.375 -3.348,-1.849 -5.373,-2.226 l 0,-0.005 C 13.533,35.939 8.8,34.638 5.482,31.319 l 0,0 0,0 z" id="S"/>
        <path inkscape:connector-curvature="0" d="m 73.452,0.024 -12.97,62.601 -10.74,0 -12.96,-62.601 10.74,0 7.6,36.663 7.59,-36.663 10.74,0 z" id="V"/>
        <path inkscape:connector-curvature="0" d="m 91.792,25.952 18.334,0 0,18.334 0.005,0 c 0,10.127 -8.213,18.34 -18.339,18.34 -10.127,0 -18.334,-8.213 -18.334,-18.34 l 0,0 0,-25.927 -0.005,0 c 0,-10.126 8.212,-18.334 18.339,-18.334 10.121,0 18.334,8.208 18.334,18.334 l -10.741,0 c 0,-4.19 -3.404,-7.594 -7.593,-7.594 -4.195,0 -7.594,3.404 -7.594,7.594 l 0,25.927 0,0 c 0,4.195 3.399,7.594 7.594,7.594 4.189,0 7.588,-3.399 7.593,-7.589 l 0,-0.005 0,-7.588 -7.593,0 0,-10.746 0,0 z" id="G"/>
      </g>
    </defs>
  </defs>
  <sodipodi:namedview xmlns:sodipodi="http://sodipodi.sourceforge.net/DTD/sodipodi-0.dtd" xmlns:inkscape="http://www.inkscape.org/namespaces/inkscape" pagecolor="#ffffff" bordercolor="#666666" borderopacity="1" objecttolerance="10" gridtolerance="10" guidetolerance="10" inkscape:pageopacity="0" inkscape:pageshadow="2" inkscape:window-width="1440" inkscape:window-height="873" id="namedview65" showgrid="false" fit-margin-top="0" fit-margin-left="0" fit-margin-right="0" fit-margin-bottom="0" units="mm" inkscape:zoom="2.0977778" inkscape:cx="1.8552307" inkscape:cy="99.617213" inkscape:window-x="0" inkscape:window-y="27" inkscape:window-maximized="1" inkscape:current-layer="svg2"/>
  <title id="title4">SVG logo combined with the W3C logo, set vertically</title>
  <desc id="desc6">The logo combines three entities displayed vertically: the W3C logo with the text 'W3C'; the drawing of a flower or star shape with eight arms; and the text 'SVG'. These three entities are set vertically.</desc>
  <metadata xmlns:rdf="http://www.w3.org/1999/02/22-rdf-syntax-ns#" xmlns:cc="http://creativecommons.org/ns#" xmlns:dc="http://purl.org/dc/elements/1.1/" xmlns:rdfs="http://www.w3.org/2000/01/rdf-schema#" xmlns:xhtml="http://www.w3.org/1999/xhtml/vocab#" id="metadata8">
    <rdf:RDF>
      <cc:Work rdf:about="">
        <dc:title>SVG logo combined with the W3C logo</dc:title>
        <dc:format>image/svg+xml</dc:format>
        <rdfs:seeAlso rdf:resource="http://www.w3.org/2007/10/sw-logos.html"/>
        <dc:date>2007-11-01</dc:date>
        <xhtml:license rdf:resource="http://www.w3.org/Consortium/Legal/2002/copyright-documents-20021231"/>
        <cc:morePermissions rdf:resource="http://www.w3.org/2007/10/sw-logos.html#LogoWithW3C"/>
        <cc:attributionURL rdf:reource="http://www.w3.org/2001/sw/"/>
        <dc:description>The logo combines three entities displayed vertically: the W3C logo with the text 'W3C'; the drawing of a flower or star shape with eight arms; and the text 'SVG'. These three entities are set vertically.
			</dc:description>
        <dc:type rdf:resource="http://purl.org/dc/dcmitype/StillImage"/>
      </cc:Work>
    </rdf:RDF>
  </metadata>
  <g xmlns:inkscape="http://www.inkscape.org/namespaces/inkscape" id="g4200">
    <path id="base" d="m -2,70.837417 141.73229,0 0,50.102373 c 0,11.77405 -9.01478,20.79248 -20.78407,20.79248 l -100.164157,0 C 7.0147744,141.73227 -2,132.71384 -2,120.93979 Z" inkscape:connector-curvature="0" style="fill:#000000;image-rendering:optimizeQuality;shape-rendering:geometricPrecision;text-rendering:geometricPrecision"/>
    <g transform="matrix(0.5008208,0,0,0.5010237,-6.2569768,-4.3161375)" id="g49" style="stroke:#000000;stroke-width:37.93833542;image-rendering:optimizeQuality;shape-rendering:geometricPrecision;text-rendering:geometricPrecision">
      <g id="svgstar" transform="translate(150,150)" style="stroke-width:37.93833542">
        <path id="svgbar" d="m -84.1487,-15.8513 a 22.4171,22.4171 0 1 0 0,31.7026 l 168.2974,0 a 22.4171,22.4171 0 1 0 0,-31.7026 z" inkscape:connector-curvature="0" style="fill:#ffb13b;stroke-width:37.93833542"/>
        <use xlink:href="#svgbar" transform="matrix(0.70710678,0.70710678,-0.70710678,0.70710678,0,0)" id="use53" x="0" y="0" width="100%" height="100%" style="stroke-width:37.93833542"/>
        <use xlink:href="#svgbar" transform="matrix(0,1,-1,0,0,0)" id="use55" x="0" y="0" width="100%" height="100%" style="stroke-width:37.93833542"/>
        <use xlink:href="#svgbar" transform="matrix(-0.70710678,0.70710678,-0.70710678,-0.70710678,0,0)" id="use57" x="0" y="0" width="100%" height="100%" style="stroke-width:37.93833542"/>
      </g>
    </g>
    <use transform="matrix(0.5008208,0,0,0.5010237,-6.2569768,-4.3161375)" xlink:href="#svgstar" id="use59" x="0" y="0" width="100%" height="100%" style="image-rendering:optimizeQuality;shape-rendering:geometricPrecision;text-rendering:geometricPrecision"/>
    <use xlink:href="#base" id="use61" style="opacity:0.85;image-rendering:optimizeQuality;shape-rendering:geometricPrecision;text-rendering:geometricPrecision" x="0" y="0" width="100%" height="100%"/>
    <use transform="matrix(0.5008208,0,0,0.5010237,-6.2569768,-4.3161375)" xlink:href="#SVG" id="use63" x="0" y="0" width="100%" height="100%" style="image-rendering:optimizeQuality;shape-rendering:geometricPrecision;text-rendering:geometricPrecision"/>
  </g>
</g>
  </g>
</svg>
